<svg width="25" height="25" viewBox="0 0 25 25" fill="none" xmlns="http://www.w3.org/2000/svg">
<path d="M7.76696 24.4987C7.09977 24.4948 6.43619 24.4047 5.79427 24.2309C5.23892 24.0819 4.69904 23.8847 4.18137 23.6416C3.65795 23.4018 3.15973 23.1148 2.69348 22.7845C3.29776 22.4722 3.86791 22.1031 4.39551 21.6828C4.82922 21.346 5.20769 20.9492 5.51835 20.5054C5.84233 20.0189 5.98063 19.542 5.92956 19.0875C5.88829 18.7623 5.76196 18.4522 5.56227 18.1859C5.28913 17.8284 4.95201 17.5199 4.56648 17.2744C4.01285 16.918 3.42125 16.6187 2.80159 16.3813C1.93028 16.0436 1.03681 15.7606 0.126886 15.5342C0.0692902 15.4676 0.0303204 15.3881 0.0135582 15.3032C-0.00320402 15.2183 0.00279076 15.1307 0.0310298 15.0486C0.141114 14.7571 0.564316 14.4792 1.32475 14.199C1.98799 13.9543 2.8212 13.7405 3.55636 13.5515C4.68397 13.2616 5.65779 13.0114 5.68297 12.7498C5.69066 12.6699 5.61168 12.5933 5.44152 12.5154C4.81012 12.2307 4.23978 11.8361 3.75976 11.3517C3.32533 10.9051 2.97202 10.3923 2.7144 9.83455C2.26055 8.86628 2.02865 7.69933 2.02529 6.36663C2.0253 5.81942 2.05927 5.2727 2.12706 4.72934C2.18228 4.279 2.25959 3.82031 2.35678 3.36584C2.52181 2.59589 2.69163 2.09145 2.69331 2.0869C3.43849 2.39331 4.20167 2.65803 4.97906 2.87971C5.74557 3.1033 6.52471 3.28526 7.31275 3.42474C8.19059 3.58327 9.08158 3.66619 9.97494 3.67253C12.0731 3.67253 13.7265 3.13906 14.8892 2.08698C16.052 1.0349 17.3497 0.501343 18.746 0.501343C19.3158 0.504455 19.882 0.587952 20.4262 0.749131C20.8949 0.886879 21.3477 1.06948 21.778 1.29416C22.2148 1.51735 22.6263 1.78303 23.006 2.08698C23.004 2.0885 22.7199 2.29552 22.3075 2.64399C21.7684 3.09865 21.2589 3.58432 20.7818 4.09831C20.1991 4.71449 19.696 5.3954 19.2835 6.12635C18.8412 6.93993 18.6338 7.70642 18.6672 8.40438C18.6792 8.66258 18.7259 8.91824 18.8062 9.16504C18.8926 9.4263 19.0153 9.67532 19.1709 9.90545C19.3477 10.1646 19.5566 10.4023 19.7932 10.6134C20.0735 10.8628 20.3789 11.085 20.705 11.277C21.3661 11.6675 21.9514 12.1643 22.4352 12.7455C22.8712 13.2777 23.2176 13.8718 23.4616 14.5062C23.888 15.6013 24.0646 16.8787 23.9862 18.3029C23.9527 18.8847 23.8825 19.464 23.7761 20.0378C23.6892 20.5114 23.5779 20.9911 23.4455 21.4633C23.3233 21.9107 23.1766 22.3516 23.006 22.7842C22.41 22.4533 21.7882 22.1668 21.146 21.9274C20.5095 21.6847 19.8549 21.4878 19.1876 21.3382C18.4281 21.1654 17.6505 21.0756 16.8697 21.0703C14.9991 21.0703 13.4052 21.6471 12.1324 22.7845C10.8597 23.9219 9.39084 24.4987 7.76696 24.4987ZM13.0149 8.19718C12.5632 8.19634 12.1159 8.2826 11.6999 8.45079C11.2984 8.61292 10.9337 8.84795 10.626 9.14284C10.3174 9.43683 10.0716 9.78521 9.90195 10.1687C9.72605 10.5661 9.6359 10.9934 9.6369 11.4249C9.6359 11.8564 9.72605 12.2836 9.90195 12.6811C10.0716 13.0645 10.3174 13.4129 10.626 13.7069C10.9337 14.0016 11.2984 14.2365 11.6999 14.3985C12.1159 14.5667 12.5632 14.653 13.0149 14.6521C13.4667 14.653 13.914 14.5667 14.3301 14.3985C14.7315 14.2365 15.0962 14.0017 15.4039 13.7069C15.7125 13.4129 15.9584 13.0646 16.128 12.6811C16.3041 12.2837 16.3943 11.8564 16.3935 11.4249C16.3944 10.9934 16.3041 10.5661 16.128 10.1687C15.9584 9.7852 15.7125 9.43681 15.4039 9.14284C15.0962 8.84793 14.7315 8.6129 14.3301 8.45079C13.914 8.28264 13.4668 8.19641 13.015 8.19727L13.0149 8.19718Z" fill="#1C64F2"/>
</svg>
