<svg width="37" height="37" viewBox="0 0 37 37" fill="none" xmlns="http://www.w3.org/2000/svg">
<rect x="0.71167" y="0.5" width="36" height="36" rx="3" fill="#EBF5FF"/>
<path fill-rule="evenodd" clip-rule="evenodd" d="M11.7117 13.5C11.7117 13.2348 11.817 12.9804 12.0046 12.7929C12.1921 12.6054 12.4465 12.5 12.7117 12.5H24.7117C24.9769 12.5 25.2312 12.6054 25.4188 12.7929C25.6063 12.9804 25.7117 13.2348 25.7117 13.5C25.7117 13.7652 25.6063 14.0196 25.4188 14.2071C25.2312 14.3946 24.9769 14.5 24.7117 14.5H12.7117C12.4465 14.5 12.1921 14.3946 12.0046 14.2071C11.817 14.0196 11.7117 13.7652 11.7117 13.5ZM11.7117 18.5C11.7117 18.2348 11.817 17.9804 12.0046 17.7929C12.1921 17.6054 12.4465 17.5 12.7117 17.5H18.7117C18.9769 17.5 19.2312 17.6054 19.4188 17.7929C19.6063 17.9804 19.7117 18.2348 19.7117 18.5C19.7117 18.7652 19.6063 19.0196 19.4188 19.2071C19.2312 19.3946 18.9769 19.5 18.7117 19.5H12.7117C12.4465 19.5 12.1921 19.3946 12.0046 19.2071C11.817 19.0196 11.7117 18.7652 11.7117 18.5ZM11.7117 23.5C11.7117 23.2348 11.817 22.9804 12.0046 22.7929C12.1921 22.6054 12.4465 22.5 12.7117 22.5H24.7117C24.9769 22.5 25.2312 22.6054 25.4188 22.7929C25.6063 22.9804 25.7117 23.2348 25.7117 23.5C25.7117 23.7652 25.6063 24.0196 25.4188 24.2071C25.2312 24.3946 24.9769 24.5 24.7117 24.5H12.7117C12.4465 24.5 12.1921 24.3946 12.0046 24.2071C11.817 24.0196 11.7117 23.7652 11.7117 23.5Z" fill="#111928"/>
</svg>
