<svg width="37" height="37" viewBox="0 0 37 37" fill="none" xmlns="http://www.w3.org/2000/svg">
<rect x="0.711914" y="0.5" width="36" height="36" rx="3" fill="#EBF5FF"/>
<path fill-rule="evenodd" clip-rule="evenodd" d="M11.8636 11.6516C12.0886 11.4267 12.3938 11.3003 12.712 11.3003C13.0301 11.3003 13.3353 11.4267 13.5604 11.6516L18.712 16.8032L23.8636 11.6516C23.9742 11.537 24.1067 11.4456 24.2531 11.3827C24.3995 11.3198 24.5569 11.2867 24.7163 11.2853C24.8756 11.2839 25.0336 11.3143 25.1811 11.3746C25.3286 11.435 25.4626 11.5241 25.5752 11.6367C25.6879 11.7494 25.777 11.8834 25.8373 12.0309C25.8977 12.1784 25.928 12.3364 25.9267 12.4957C25.9253 12.655 25.8922 12.8125 25.8293 12.9589C25.7664 13.1053 25.675 13.2377 25.5603 13.3484L20.4087 18.5L25.5603 23.6516C25.7789 23.8779 25.8999 24.1811 25.8972 24.4957C25.8944 24.8103 25.7682 25.1113 25.5457 25.3338C25.3232 25.5563 25.0223 25.6825 24.7076 25.6852C24.393 25.688 24.0899 25.567 23.8636 25.3484L18.712 20.1968L13.5604 25.3484C13.334 25.567 13.0309 25.688 12.7163 25.6852C12.4016 25.6825 12.1007 25.5563 11.8782 25.3338C11.6557 25.1113 11.5295 24.8103 11.5267 24.4957C11.524 24.1811 11.645 23.8779 11.8636 23.6516L17.0152 18.5L11.8636 13.3484C11.6386 13.1234 11.5122 12.8182 11.5122 12.5C11.5122 12.1818 11.6386 11.8767 11.8636 11.6516V11.6516Z" fill="#6B7280"/>
</svg>
